<mxfile host="65bd71144e">
    <diagram id="ECK0fwLtQMy8ytTb6cs7" name="Page-1">
        <mxGraphModel dx="818" dy="984" grid="1" gridSize="10" guides="1" tooltips="1" connect="1" arrows="1" fold="1" page="1" pageScale="1" pageWidth="1169" pageHeight="1654" math="0" shadow="0">
            <root>
                <mxCell id="0"/>
                <mxCell id="1" parent="0"/>
                <mxCell id="4" value="" style="edgeStyle=none;html=1;" edge="1" parent="1" source="2" target="3">
                    <mxGeometry relative="1" as="geometry"/>
                </mxCell>
                <mxCell id="6" value="Dnevniške&lt;br&gt;datoteke" style="edgeLabel;html=1;align=center;verticalAlign=middle;resizable=0;points=[];" vertex="1" connectable="0" parent="4">
                    <mxGeometry x="-0.3557" y="-1" relative="1" as="geometry">
                        <mxPoint x="18" y="-21" as="offset"/>
                    </mxGeometry>
                </mxCell>
                <mxCell id="2" value="Strežniki" style="rounded=0;whiteSpace=wrap;html=1;verticalAlign=top;fontStyle=1" vertex="1" parent="1">
                    <mxGeometry x="60" y="235" width="120" height="60" as="geometry"/>
                </mxCell>
                <mxCell id="3" value="Vozlišča &lt;br&gt;Scribe-Hadoop" style="rounded=0;whiteSpace=wrap;html=1;verticalAlign=top;fontStyle=1" vertex="1" parent="1">
                    <mxGeometry x="350" y="200" width="190" height="130" as="geometry"/>
                </mxCell>
                <mxCell id="7" value="Stiskanje" style="rounded=0;whiteSpace=wrap;html=1;" vertex="1" parent="1">
                    <mxGeometry x="380" y="250" width="60" height="30" as="geometry"/>
                </mxCell>
                <mxCell id="8" value="HDFS" style="ellipse;whiteSpace=wrap;html=1;" vertex="1" parent="1">
                    <mxGeometry x="460" y="280" width="70" height="40" as="geometry"/>
                </mxCell>
                <mxCell id="9" value="Produkcijsko vozlišče&lt;br&gt;Hive-Hadoop&amp;nbsp;" style="rounded=0;whiteSpace=wrap;html=1;verticalAlign=top;fontStyle=1;align=left;" vertex="1" parent="1">
                    <mxGeometry x="320" y="390" width="220" height="170" as="geometry"/>
                </mxCell>
                <mxCell id="11" value="HDFS" style="ellipse;whiteSpace=wrap;html=1;" vertex="1" parent="1">
                    <mxGeometry x="460" y="510" width="70" height="40" as="geometry"/>
                </mxCell>
                <mxCell id="12" style="edgeStyle=none;html=1;exitX=0.5;exitY=1;exitDx=0;exitDy=0;" edge="1" parent="1" source="8" target="11">
                    <mxGeometry relative="1" as="geometry"/>
                </mxCell>
                <mxCell id="13" value="Hive" style="ellipse;whiteSpace=wrap;html=1;" vertex="1" parent="1">
                    <mxGeometry x="380" y="510" width="70" height="40" as="geometry"/>
                </mxCell>
                <mxCell id="14" value="Microstrategy" style="rounded=0;whiteSpace=wrap;html=1;" vertex="1" parent="1">
                    <mxGeometry x="330" y="430" width="80" height="30" as="geometry"/>
                </mxCell>
                <mxCell id="15" value="Hive naloge" style="rounded=0;whiteSpace=wrap;html=1;" vertex="1" parent="1">
                    <mxGeometry x="330" y="470" width="80" height="30" as="geometry"/>
                </mxCell>
                <mxCell id="16" value="Ad hoc vozlišče &lt;br&gt;Hive-Hadoop" style="rounded=0;whiteSpace=wrap;html=1;verticalAlign=top;fontStyle=1" vertex="1" parent="1">
                    <mxGeometry x="40" y="390" width="190" height="170" as="geometry"/>
                </mxCell>
                <mxCell id="17" value="Hive" style="ellipse;whiteSpace=wrap;html=1;" vertex="1" parent="1">
                    <mxGeometry x="150" y="510" width="70" height="40" as="geometry"/>
                </mxCell>
                <mxCell id="18" value="" style="edgeStyle=none;html=1;" edge="1" parent="1" source="13" target="17">
                    <mxGeometry relative="1" as="geometry"/>
                </mxCell>
                <mxCell id="23" value="Hive replikacija" style="edgeLabel;html=1;align=center;verticalAlign=middle;resizable=0;points=[];" vertex="1" connectable="0" parent="18">
                    <mxGeometry x="0.2565" y="-4" relative="1" as="geometry">
                        <mxPoint y="-16" as="offset"/>
                    </mxGeometry>
                </mxCell>
                <mxCell id="19" value="HDFS" style="ellipse;whiteSpace=wrap;html=1;" vertex="1" parent="1">
                    <mxGeometry x="60" y="510" width="70" height="40" as="geometry"/>
                </mxCell>
                <mxCell id="20" value="HiPal" style="rounded=0;whiteSpace=wrap;html=1;" vertex="1" parent="1">
                    <mxGeometry x="50" y="430" width="80" height="30" as="geometry"/>
                </mxCell>
                <mxCell id="21" value="Hive CLI&lt;span style=&quot;color: rgba(0, 0, 0, 0); font-family: monospace; font-size: 0px; text-align: start;&quot;&gt;%3CmxGraphModel%3E%3Croot%3E%3CmxCell%20id%3D%220%22%2F%3E%3CmxCell%20id%3D%221%22%20parent%3D%220%22%2F%3E%3CmxCell%20id%3D%222%22%20value%3D%22HiPal%22%20style%3D%22rounded%3D0%3BwhiteSpace%3Dwrap%3Bhtml%3D1%3B%22%20vertex%3D%221%22%20parent%3D%221%22%3E%3CmxGeometry%20x%3D%2250%22%20y%3D%22430%22%20width%3D%2280%22%20height%3D%2230%22%20as%3D%22geometry%22%2F%3E%3C%2FmxCell%3E%3C%2Froot%3E%3C%2FmxGraphModel%3E&lt;/span&gt;" style="rounded=0;whiteSpace=wrap;html=1;" vertex="1" parent="1">
                    <mxGeometry x="140" y="430" width="80" height="30" as="geometry"/>
                </mxCell>
                <mxCell id="22" value="Hive naloge" style="rounded=0;whiteSpace=wrap;html=1;" vertex="1" parent="1">
                    <mxGeometry x="100" y="470" width="80" height="30" as="geometry"/>
                </mxCell>
                <mxCell id="36" style="edgeStyle=none;html=1;exitX=0.25;exitY=0;exitDx=0;exitDy=0;entryX=0.5;entryY=1;entryDx=0;entryDy=0;" edge="1" parent="1" source="33" target="13">
                    <mxGeometry relative="1" as="geometry"/>
                </mxCell>
                <mxCell id="37" value="Stisnjene&lt;br&gt;zbirke podatkov" style="edgeLabel;html=1;align=center;verticalAlign=middle;resizable=0;points=[];" vertex="1" connectable="0" parent="36">
                    <mxGeometry x="-0.2664" relative="1" as="geometry">
                        <mxPoint x="48" y="-7" as="offset"/>
                    </mxGeometry>
                </mxCell>
                <mxCell id="33" value="Federiran MySQL" style="rounded=0;whiteSpace=wrap;html=1;verticalAlign=top;fontStyle=1" vertex="1" parent="1">
                    <mxGeometry x="370" y="640" width="190" height="130" as="geometry"/>
                </mxCell>
                <mxCell id="34" value="MySQL DB" style="ellipse;whiteSpace=wrap;html=1;" vertex="1" parent="1">
                    <mxGeometry x="430" y="670" width="70" height="40" as="geometry"/>
                </mxCell>
                <mxCell id="35" value="Stiskanje" style="rounded=0;whiteSpace=wrap;html=1;" vertex="1" parent="1">
                    <mxGeometry x="435" y="730" width="60" height="30" as="geometry"/>
                </mxCell>
            </root>
        </mxGraphModel>
    </diagram>
</mxfile>